<svg width="33" height="32" viewBox="0 0 33 32" fill="none" xmlns="http://www.w3.org/2000/svg">
<g clip-path="url(#clip0_1_565)">
<path d="M1.5 6.63889C1.5 19.5408 11.9591 30 24.8611 30C25.9341 30 26.9904 29.9277 28.0248 29.7877C29.4926 29.5888 30.5 28.2748 30.5 26.7939V22.6557C30.5 21.2689 29.6124 20.0375 28.2968 19.599L23.2244 17.9081C21.9347 17.4783 20.5517 18.2373 20.2221 19.5563C19.7821 21.3164 17.5902 21.9235 16.3072 20.6406L10.8594 15.1928C9.57652 13.9098 10.1836 11.718 11.9437 11.278C13.2627 10.9482 14.0217 9.56537 13.5919 8.27555L11.9011 3.20326C11.4625 1.8875 10.2312 1 8.84422 1H4.70617C3.22518 1 1.91112 2.00748 1.71242 3.4751C1.57234 4.50973 1.5 5.56586 1.5 6.63889Z" stroke="black" stroke-width="2" stroke-linejoin="round"/>
<path d="M-274.5 -179.333C-274.5 87.6033 -58.1043 304 208.833 304C231.033 304 252.887 302.503 274.29 299.607C304.657 295.493 325.5 268.307 325.5 237.667V152.05C325.5 123.357 307.137 97.88 279.917 88.8067L174.97 53.8233C148.287 44.93 119.673 60.6333 112.853 87.9233C103.75 124.34 58.4 136.9 31.8566 110.357L-80.858 -2.35666C-107.4 -28.9 -94.8387 -74.2487 -58.4237 -83.3523C-31.1333 -90.1747 -15.43 -118.785 -24.3234 -145.471L-59.305 -250.415C-68.3794 -277.638 -93.8553 -296 -122.551 -296H-208.165C-238.807 -296 -265.994 -275.156 -270.105 -244.791C-273.003 -223.385 -274.5 -201.534 -274.5 -179.333Z" stroke="#323232" stroke-width="66.6667" stroke-linejoin="round"/>
</g>
<defs>
<clipPath id="clip0_1_565">
<rect width="32" height="32" fill="white" transform="translate(0.5)"/>
</clipPath>
</defs>
</svg>
